<?xml version="1.0" encoding="utf-8"?>
<!-- Generator: Adobe Illustrator 23.0.1, SVG Export Plug-In . SVG Version: 6.00 Build 0)  -->
<svg version="1.1" id="svg" xmlns="http://www.w3.org/2000/svg" xmlns:xlink="http://www.w3.org/1999/xlink" x="0px" y="0px"
	 width="322.136px" height="400px" viewBox="0 0 322.136 400" enable-background="new 0 0 322.136 400" xml:space="preserve">
<g>
	<path fill-rule="evenodd" clip-rule="evenodd" fill="#FF0000" d="M206.651,8.745c37.795-19.549,84.387-5.213,104.261,31.93
		c19.875,37.143,5.539,83.735-32.256,103.284l-30.953,16.291c26.717,0.977,52.131,15.639,65.489,40.727
		c19.875,37.469,5.539,83.735-32.256,103.284l-165.515,86.993c-37.795,19.549-84.387,5.213-104.261-31.93
		S5.948,275.59,43.417,256.041l30.953-16.291c-26.717-0.977-52.131-15.639-65.489-40.727
		c-19.875-37.469-5.213-83.735,32.256-103.284C41.136,95.739,206.651,8.745,206.651,8.745z"/>
	<polygon fill-rule="evenodd" clip-rule="evenodd" fill="#FFFFFF" points="117.377,138.421 217.729,200.326 117.377,261.905 	"/>
</g>
</svg>
